#!OML:ASF E:\Style6\Style6.ASF
:FULLY-SPECIFIED
:DEGREES
2665
root 0.330583 18.1908 0.617393 4.81357 -2.55979 -1.51309
lowerback 0.893605 -1.16486 4.54372
upperback 5.46613 -1.74099 2.00529
thorax 5.09202 -0.71403 -0.523207
lowerneck -6.77861 2.6063 2.39436
upperneck -3.11711 3.27301 -9.07708
head 0.400338 1.54596 -3.25478
rclavicle 2.06736e-014 -3.26007e-014
rhumerus 9.57944 24.4329 -94.5949
rradius 140.141
rwrist 51.3241
rhand 26.0811 -6.67094
rfingers 7.12502
rthumb 50.1518 -27.8136
lclavicle 2.06736e-014 -3.26007e-014
lhumerus 4.56474 -20.133 95.7022
lradius 135.743
lwrist -32.851
lhand 7.36563 36.5074
lfingers 7.12502
lthumb 32.6237 63.5862
rfemur -10.7242 10.1191 20.3135
rtibia 17.6724
rfoot -8.31842 -18.3973
rtoes 0.0847072
lfemur -7.85918 -18.1711 -17.3072
ltibia 19.4033
lfoot -7.56381 23.3532
ltoes -12.3997
2666
root 0.330678 18.1916 0.618725 4.79678 -2.5459 -1.44846
lowerback 0.848118 -1.1559 4.45072
upperback 5.45941 -1.72862 1.97981
thorax 5.11244 -0.711077 -0.49841
lowerneck -6.71442 2.6144 2.42169
upperneck -3.14393 3.28033 -9.05891
head 0.381206 1.55168 -3.25418
rclavicle 5.96354e-016 2.38542e-015
rhumerus 9.66987 24.3774 -94.67
rradius 140.008
rwrist 51.3451
rhand 26.0679 -6.62701
rfingers 7.12502
rthumb 50.1397 -27.7761
lclavicle 5.96354e-016 2.38542e-015
lhumerus 4.61924 -20.1039 95.6865
lradius 135.676
lwrist -32.8776
lhand 7.39907 36.4575
lfingers 7.12502
lthumb 32.6555 63.5297
rfemur -10.6424 10.1914 20.244
rtibia 17.5774
rfoot -8.35695 -18.4962
rtoes 0.161406
lfemur -7.81979 -18.1635 -17.3842
ltibia 19.3606
lfoot -7.49908 23.3281
ltoes -12.4211
2667
root 0.331229 18.1921 0.619402 4.77525 -2.52087 -1.419
lowerback 0.844468 -1.14607 4.42441
upperback 5.44953 -1.71335 1.94904
thorax 5.10422 -0.704099 -0.515166
lowerneck -6.67681 2.61201 2.48809
upperneck -3.14226 3.2729 -9.07196
head 0.376486 1.54814 -3.27185
rclavicle 1.63003e-014 1.43125e-014
rhumerus 9.70962 24.3628 -94.6498
rradius 139.953
rwrist 51.3603
rhand 25.945 -6.70507
rfingers 7.12502
rthumb 50.0273 -27.9134
lclavicle 1.63003e-014 1.43125e-014
lhumerus 4.66318 -20.1161 95.6591
lradius 135.666
lwrist -32.9348
lhand 7.46614 36.4392
lfingers 7.12502
lthumb 32.7193 63.4982
rfemur -10.5702 10.2241 20.2176
rtibia 17.5063
rfoot -8.28675 -18.588
rtoes -0.0379062
lfemur -7.7776 -18.0912 -17.4222
ltibia 19.3187
lfoot -7.42357 23.242
ltoes -12.867
2668
root 0.331439 18.1931 0.618889 4.78368 -2.48488 -1.41372
lowerback 0.823377 -1.13822 4.40427
upperback 5.4243 -1.70199 1.9356
thorax 5.09001 -0.6995 -0.517805
lowerneck -6.59003 2.61676 2.57778
upperneck -3.15682 3.27249 -9.1441
head 0.36036 1.54899 -3.31469
rclavicle 1.88845e-014 1.03368e-014
rhumerus 9.65597 24.4136 -94.5537
rradius 140.025
rwrist 51.3453
rhand 25.9095 -6.81093
rfingers 7.12502
rthumb 49.9949 -28.0364
lclavicle 1.88845e-014 1.03368e-014
lhumerus 4.69937 -20.1352 95.645
lradius 135.667
lwrist -32.9309
lhand 7.4673 36.4072
lfingers 7.12502
lthumb 32.7204 63.466
rfemur -10.5597 10.318 20.2083
rtibia 17.4775
rfoot -8.34504 -18.6972
rtoes 0.130845
lfemur -7.76951 -17.9992 -17.407
ltibia 19.2477
lfoot -7.44914 23.115
ltoes -12.719
2669
root 0.332487 18.1939 0.619574 4.75723 -2.49537 -1.41931
lowerback 0.843577 -1.11933 4.38263
upperback 5.40699 -1.67441 1.93894
thorax 5.06185 -0.687564 -0.500878
lowerneck -6.58382 2.6162 2.56786
upperneck -3.08839 3.27738 -9.1313
head 0.380984 1.55025 -3.30798
rclavicle -1.98785e-015 1.35174e-014
rhumerus 9.58771 24.4035 -94.5325
rradius 140.098
rwrist 51.0268
rhand 26.1194 -6.85438
rfingers 7.12502
rthumb 50.1868 -27.9785
lclavicle -1.98785e-015 1.35174e-014
lhumerus 4.67018 -20.1312 95.6868
lradius 135.72
lwrist -32.9477
lhand 7.51395 36.3768
lfingers 7.12502
lthumb 32.7648 63.4264
rfemur -10.5032 10.3853 20.2134
rtibia 17.4437
rfoot -8.33081 -18.749
rtoes -0.0524845
lfemur -7.69448 -17.9056 -17.4054
ltibia 19.1731
lfoot -7.38809 22.9919
ltoes -13.2198
2670
root 0.333418 18.1951 0.619396 4.7461 -2.51973 -1.35579
lowerback 0.825624 -1.11178 4.26779
upperback 5.41908 -1.66345 1.93519
thorax 5.08745 -0.686612 -0.440947
lowerneck -6.65459 2.63577 2.53794
upperneck -3.04618 3.3085 -9.12057
head 0.407887 1.56353 -3.29675
rclavicle -4.77083e-015 -7.15625e-015
rhumerus 9.62033 24.3016 -94.5559
rradius 140.185
rwrist 50.4204
rhand 26.6988 -6.64627
rfingers 7.12502
rthumb 50.7161 -27.4847
lclavicle -4.77083e-015 -7.15625e-015
lhumerus 4.69817 -20.1256 95.7081
lradius 135.749
lwrist -33.0463
lhand 7.53428 36.4116
lfingers 7.12502
lthumb 32.7841 63.4571
rfemur -10.4675 10.4405 20.1387
rtibia 17.4067
rfoot -8.29411 -18.7849
rtoes -0.161877
lfemur -7.64125 -17.859 -17.4754
ltibia 19.0995
lfoot -7.3426 22.9227
ltoes -13.5869
